<?xml version="1.0" encoding="utf-8"?>
<!-- Generator: Adobe Illustrator 18.1.1, SVG Export Plug-In . SVG Version: 6.00 Build 0)  -->
<svg version="1.1" id="Layer_1" xmlns="http://www.w3.org/2000/svg" xmlns:xlink="http://www.w3.org/1999/xlink" x="0px" y="0px"
	 viewBox="0 0 125 125" enable-background="new 0 0 125 125" xml:space="preserve">
<rect display="none" fill="none" width="125" height="125"/>
<g display="none">
	<g display="inline">
		<path fill="#F8F9FA" d="M118,63.9c-1.6,0-3,1-3.5,2.5h-5.6c-0.2-0.4-0.6-0.7-1-1V33.8c0-0.7-0.5-1.2-1.2-1.2h-9l-2.4-5.8
			c-0.2-0.4-0.7-0.7-1.1-0.7c-0.5,0-0.9,0.3-1.1,0.8l-3.9,9.9l-3.8-9.9c-0.4-0.9-1.9-0.9-2.2,0l-3.8,9.8l-3.8-9.8
			c-0.4-0.9-1.9-0.9-2.2,0l-3.8,10l-1.6-3.8c-0.2-0.4-0.6-0.7-1.1-0.7H55.5c-0.7,0-1.2,0.5-1.2,1.2v24.7c-0.5,0.3-0.8,0.6-1.1,1.1
			h-6.6l-2.4-5.8c-0.2-0.4-0.6-0.7-1.1-0.7c0,0,0,0,0,0c-0.5,0-0.9,0.3-1.1,0.8l-3.9,9.9l-3.8-9.9c-0.2-0.5-0.6-0.8-1.1-0.8
			s-0.9,0.3-1.1,0.8l-3.8,9.8l-3.8-9.8c-0.4-0.9-1.9-0.9-2.2,0l-3.8,10L17,59.8c-0.2-0.4-0.6-0.7-1.1-0.7h-5.4
			C10,57.7,8.6,56.6,7,56.6c-2,0-3.7,1.7-3.7,3.7S5,64,7,64c1.6,0,3-1,3.5-2.5h4.6l2.4,5.8c0.2,0.5,0.6,0.8,1.1,0.7
			c0.5,0,0.9-0.3,1.1-0.8l3.8-9.8l3.8,9.8c0.2,0.5,0.6,0.8,1.1,0.8s0.9-0.3,1.1-0.8l3.8-9.8l3.8,9.8c0.2,0.5,0.6,0.8,1.1,0.8
			c0,0,0,0,0,0c0.5,0,0.9-0.3,1.1-0.8l3.9-10l1.6,3.8c0.2,0.4,0.6,0.7,1.1,0.7h7.6c0.4,0.7,1.2,1.2,2.1,1.2c0.9,0,1.7-0.5,2.1-1.2
			h8.7v12.2H55.8c-0.7,0-1.2,0.5-1.2,1.2v14.7h-4.8c-0.7,0-1.2,0.5-1.2,1.2s0.5,1.2,1.2,1.2h11.7c0.7,0,1.2-0.5,1.2-1.2
			s-0.5-1.2-1.2-1.2H57V76.3h9.4v10.3c0,0.4,0.2,0.8,0.6,1c0.2,0.1,0.4,0.1,0.6,0.1c0.2,0,0.4-0.1,0.6-0.2l29.9-18.8h6.4
			c0.4,0.8,1.2,1.3,2.2,1.3c0.9,0,1.8-0.5,2.2-1.3h5.6c0.5,1.4,1.9,2.5,3.5,2.5c2,0,3.7-1.7,3.7-3.7S120,63.9,118,63.9z M7,61.6
			c-0.7,0-1.3-0.6-1.3-1.3C5.7,59.6,6.3,59,7,59s1.3,0.6,1.3,1.3C8.3,61,7.7,61.6,7,61.6z M57.8,59.4c-0.2-0.5-0.6-0.9-1.1-1.1V34.7
			h9.5l2.4,5.8c0.2,0.5,0.6,0.7,1.1,0.7c0.5,0,0.9-0.3,1.1-0.8l3.8-9.8l3.8,9.8c0.4,0.9,1.9,0.9,2.2,0l3.8-9.8l3.8,9.8
			c0.2,0.5,0.6,0.8,1.1,0.8c0,0,0,0,0,0c0.5,0,0.9-0.3,1.1-0.8l3.9-10l1.6,3.8c0.2,0.4,0.6,0.7,1.1,0.7h8.5v30.5
			c-0.4,0.2-0.8,0.6-1,1h-6.4l-29.9-19c-0.4-0.2-0.8-0.3-1.2,0c-0.4,0.2-0.6,0.6-0.6,1v11H57.8z M68.7,84.5V50.6l26.8,17.1
			L68.7,84.5z M118,68.9c-0.7,0-1.3-0.6-1.3-1.3s0.6-1.3,1.3-1.3c0.7,0,1.3,0.6,1.3,1.3S118.7,68.9,118,68.9z"/>
	</g>
	<g display="inline">
		<path fill="#F8F9FA" d="M60.3,93.2h-9.2c-0.7,0-1.2,0.5-1.2,1.2c0,0.7,0.5,1.2,1.2,1.2h9.2c0.7,0,1.2-0.5,1.2-1.2
			C61.5,93.7,60.9,93.2,60.3,93.2z"/>
	</g>
	<g display="inline">
		<path fill="#F8F9FA" d="M59,96.5h-6.7c-0.7,0-1.2,0.5-1.2,1.2s0.5,1.2,1.2,1.2H59c0.7,0,1.2-0.5,1.2-1.2S59.7,96.5,59,96.5z"/>
	</g>
	<g display="inline">
		<path fill="#F8F9FA" d="M70.9,76.4h5.4c0.7,0,1.2-0.5,1.2-1.2c0-0.7-0.5-1.2-1.2-1.2h-5.4c-0.7,0-1.2,0.5-1.2,1.2
			C69.7,75.8,70.3,76.4,70.9,76.4z"/>
	</g>
	<g display="inline">
		<path fill="#F8F9FA" d="M70.9,61.6h1.5v1.5c0,0.7,0.5,1.2,1.2,1.2c0.7,0,1.2-0.5,1.2-1.2v-1.5h1.5c0.7,0,1.2-0.5,1.2-1.2
			c0-0.7-0.5-1.2-1.2-1.2h-1.5v-1.5c0-0.7-0.5-1.2-1.2-1.2c-0.7,0-1.2,0.5-1.2,1.2v1.5h-1.5c-0.7,0-1.2,0.5-1.2,1.2
			C69.7,61.1,70.3,61.6,70.9,61.6z"/>
	</g>
</g>
<g>
	<g>
		<g>
			<g>
				<rect x="45.8" y="45.6" fill="#F8F9FA" width="33.5" height="33.5"/>
			</g>
		</g>
	</g>
	<g>
		<g>
			<g>
				<g>
					<path fill="#F8F9FA" d="M50.6,13.5c-2.6,0-4.7-2.1-4.7-4.7S48,4,50.6,4s4.7,2.1,4.7,4.7S53.2,13.5,50.6,13.5z M50.6,6.4
						c-1.3,0-2.3,1-2.3,2.3c0,1.3,1,2.3,2.3,2.3s2.3-1,2.3-2.3C52.9,7.5,51.9,6.4,50.6,6.4z"/>
				</g>
			</g>
		</g>
		<g>
			<g>
				<g>
					<path fill="#F8F9FA" d="M62.7,13.5c-2.6,0-4.7-2.1-4.7-4.7S60.1,4,62.7,4c2.6,0,4.7,2.1,4.7,4.7S65.3,13.5,62.7,13.5z
						 M62.7,6.4c-1.3,0-2.3,1-2.3,2.3c0,1.3,1,2.3,2.3,2.3C64,11,65,10,65,8.7C65,7.5,64,6.4,62.7,6.4z"/>
				</g>
			</g>
		</g>
		<g>
			<g>
				<g>
					<path fill="#F8F9FA" d="M74.9,13.5c-2.6,0-4.7-2.1-4.7-4.7S72.3,4,74.9,4c2.6,0,4.7,2.1,4.7,4.7S77.5,13.5,74.9,13.5z
						 M74.9,6.4c-1.3,0-2.3,1-2.3,2.3c0,1.3,1,2.3,2.3,2.3c1.3,0,2.3-1,2.3-2.3C77.2,7.5,76.2,6.4,74.9,6.4z"/>
				</g>
			</g>
		</g>
		<g>
			<g>
				<g>
					<path fill="#F8F9FA" d="M44.5,28.8c-0.7,0-1.2-0.5-1.2-1.2v-13c0-0.3,0.1-0.6,0.4-0.9l3.4-3.4c0.5-0.5,1.2-0.5,1.7,0
						c0.5,0.5,0.5,1.2,0,1.7l-3.1,3.1v12.5C45.7,28.3,45.2,28.8,44.5,28.8z"/>
				</g>
			</g>
		</g>
		<g>
			<g>
				<g>
					<path fill="#F8F9FA" d="M56.7,28.8c-0.7,0-1.2-0.5-1.2-1.2v-13c0-0.3,0.1-0.6,0.4-0.9l3.4-3.4c0.5-0.5,1.2-0.5,1.7,0
						c0.5,0.5,0.5,1.2,0,1.7l-3.1,3.1v12.5C57.9,28.3,57.3,28.8,56.7,28.8z"/>
				</g>
			</g>
		</g>
		<g>
			<g>
				<g>
					<path fill="#F8F9FA" d="M68.8,28.8c-0.7,0-1.2-0.5-1.2-1.2v-13c0-0.3,0.1-0.6,0.4-0.9l3.4-3.4c0.5-0.5,1.2-0.5,1.7,0
						s0.5,1.2,0,1.7L70,15.1v12.5C70,28.3,69.5,28.8,68.8,28.8z"/>
				</g>
			</g>
		</g>
		<g>
			<g>
				<g>
					<path fill="#F8F9FA" d="M104.6,25.4c-2.6,0-4.7-2.1-4.7-4.7s2.1-4.7,4.7-4.7c2.6,0,4.7,2.1,4.7,4.7S107.2,25.4,104.6,25.4z
						 M104.6,18.4c-1.3,0-2.3,1-2.3,2.3c0,1.3,1,2.3,2.3,2.3c1.3,0,2.3-1,2.3-2.3C106.9,19.4,105.9,18.4,104.6,18.4z"/>
				</g>
			</g>
		</g>
		<g>
			<g>
				<g>
					<path fill="#F8F9FA" d="M92.3,34.5H81.5c-0.7,0-1.2-0.5-1.2-1.2s0.5-1.2,1.2-1.2h10.3l9.6-9.6c0.5-0.5,1.2-0.5,1.7,0
						c0.5,0.5,0.5,1.2,0,1.7l-9.9,9.9C92.9,34.3,92.6,34.5,92.3,34.5z"/>
				</g>
			</g>
		</g>
		<g>
			<g>
				<g>
					<path fill="#F8F9FA" d="M44.5,40.1c-1,0-1.8-0.8-1.8-1.8V27.1c0-1,0.8-1.8,1.8-1.8c1,0,1.8,0.8,1.8,1.8v11.2
						C46.3,39.3,45.5,40.1,44.5,40.1z"/>
				</g>
			</g>
		</g>
		<g>
			<g>
				<g>
					<path fill="#F8F9FA" d="M50.6,40.1c-1,0-1.8-0.8-1.8-1.8V27.1c0-1,0.8-1.8,1.8-1.8c1,0,1.8,0.8,1.8,1.8v11.2
						C52.4,39.3,51.6,40.1,50.6,40.1z"/>
				</g>
			</g>
		</g>
		<g>
			<g>
				<g>
					<path fill="#F8F9FA" d="M56.7,40.1c-1,0-1.8-0.8-1.8-1.8V27.1c0-1,0.8-1.8,1.8-1.8c1,0,1.8,0.8,1.8,1.8v11.2
						C58.5,39.3,57.7,40.1,56.7,40.1z"/>
				</g>
			</g>
		</g>
		<g>
			<g>
				<g>
					<path fill="#F8F9FA" d="M62.7,40.1c-1,0-1.8-0.8-1.8-1.8V27.1c0-1,0.8-1.8,1.8-1.8c1,0,1.8,0.8,1.8,1.8v11.2
						C64.6,39.3,63.7,40.1,62.7,40.1z"/>
				</g>
			</g>
		</g>
		<g>
			<g>
				<g>
					<path fill="#F8F9FA" d="M68.8,40.1c-1,0-1.8-0.8-1.8-1.8V27.1c0-1,0.8-1.8,1.8-1.8s1.8,0.8,1.8,1.8v11.2
						C70.6,39.3,69.8,40.1,68.8,40.1z"/>
				</g>
			</g>
		</g>
		<g>
			<g>
				<g>
					<path fill="#F8F9FA" d="M74.9,40.1c-1,0-1.8-0.8-1.8-1.8V27.1c0-1,0.8-1.8,1.8-1.8s1.8,0.8,1.8,1.8v11.2
						C76.7,39.3,75.9,40.1,74.9,40.1z"/>
				</g>
			</g>
		</g>
		<g>
			<g>
				<g>
					<path fill="#F8F9FA" d="M81,40.1c-1,0-1.8-0.8-1.8-1.8V27.1c0-1,0.8-1.8,1.8-1.8s1.8,0.8,1.8,1.8v11.2
						C82.8,39.3,82,40.1,81,40.1z"/>
				</g>
			</g>
		</g>
	</g>
	<g>
		<g>
			<g>
				<g>
					<path fill="#F8F9FA" d="M116.1,55.2c-2.6,0-4.7-2.1-4.7-4.7c0-2.6,2.1-4.7,4.7-4.7s4.7,2.1,4.7,4.7
						C120.8,53.1,118.7,55.2,116.1,55.2z M116.1,48.1c-1.3,0-2.3,1-2.3,2.3c0,1.3,1,2.3,2.3,2.3s2.3-1,2.3-2.3
						C118.4,49.2,117.4,48.1,116.1,48.1z"/>
				</g>
			</g>
		</g>
		<g>
			<g>
				<g>
					<path fill="#F8F9FA" d="M116.1,67.3c-2.6,0-4.7-2.1-4.7-4.7s2.1-4.7,4.7-4.7s4.7,2.1,4.7,4.7S118.7,67.3,116.1,67.3z
						 M116.1,60.3c-1.3,0-2.3,1-2.3,2.3s1,2.3,2.3,2.3s2.3-1,2.3-2.3S117.4,60.3,116.1,60.3z"/>
				</g>
			</g>
		</g>
		<g>
			<g>
				<g>
					<path fill="#F8F9FA" d="M116.1,79.5c-2.6,0-4.7-2.1-4.7-4.7s2.1-4.7,4.7-4.7s4.7,2.1,4.7,4.7S118.7,79.5,116.1,79.5z
						 M116.1,72.4c-1.3,0-2.3,1-2.3,2.3s1,2.3,2.3,2.3s2.3-1,2.3-2.3S117.4,72.4,116.1,72.4z"/>
				</g>
			</g>
		</g>
		<g>
			<g>
				<g>
					<path fill="#F8F9FA" d="M113.6,49c-0.3,0-0.6-0.1-0.9-0.4l-3.1-3.1H97.2c-0.7,0-1.2-0.5-1.2-1.2s0.5-1.2,1.2-1.2h13
						c0.3,0,0.6,0.1,0.9,0.4l3.4,3.4c0.5,0.5,0.5,1.2,0,1.7C114.3,48.9,113.9,49,113.6,49z"/>
				</g>
			</g>
		</g>
		<g>
			<g>
				<g>
					<path fill="#F8F9FA" d="M113.6,61.2c-0.3,0-0.6-0.1-0.9-0.4l-3.1-3.1H97.2c-0.7,0-1.2-0.5-1.2-1.2s0.5-1.2,1.2-1.2h13
						c0.3,0,0.6,0.1,0.9,0.4l3.4,3.4c0.5,0.5,0.5,1.2,0,1.7C114.3,61,113.9,61.2,113.6,61.2z"/>
				</g>
			</g>
		</g>
		<g>
			<g>
				<g>
					<path fill="#F8F9FA" d="M113.6,73.3c-0.3,0-0.6-0.1-0.9-0.4l-3.1-3.1H97.2c-0.7,0-1.2-0.5-1.2-1.2c0-0.7,0.5-1.2,1.2-1.2h13
						c0.3,0,0.6,0.1,0.9,0.4l3.4,3.4c0.5,0.5,0.5,1.2,0,1.7C114.3,73.2,113.9,73.3,113.6,73.3z"/>
				</g>
			</g>
		</g>
		<g>
			<g>
				<g>
					<path fill="#F8F9FA" d="M104.1,109.2c-2.6,0-4.7-2.1-4.7-4.7s2.1-4.7,4.7-4.7c2.6,0,4.7,2.1,4.7,4.7S106.8,109.2,104.1,109.2z
						 M104.1,102.2c-1.3,0-2.3,1-2.3,2.3s1,2.3,2.3,2.3s2.3-1,2.3-2.3S105.4,102.2,104.1,102.2z"/>
				</g>
			</g>
		</g>
		<g>
			<g>
				<g>
					<path fill="#F8F9FA" d="M101.5,103.2c-0.3,0-0.6-0.1-0.9-0.4L90.7,93c-0.2-0.2-0.4-0.5-0.4-0.9V81.4c0-0.7,0.5-1.2,1.2-1.2
						c0.7,0,1.2,0.5,1.2,1.2v10.3l9.6,9.6c0.5,0.5,0.5,1.2,0,1.7C102.1,103.1,101.8,103.2,101.5,103.2z"/>
				</g>
			</g>
		</g>
		<g>
			<g>
				<g>
					<path fill="#F8F9FA" d="M97.8,46.2H86.6c-1,0-1.8-0.8-1.8-1.8c0-1,0.8-1.8,1.8-1.8h11.2c1,0,1.8,0.8,1.8,1.8
						C99.6,45.4,98.8,46.2,97.8,46.2z"/>
				</g>
			</g>
		</g>
		<g>
			<g>
				<g>
					<path fill="#F8F9FA" d="M97.8,52.3H86.6c-1,0-1.8-0.8-1.8-1.8c0-1,0.8-1.8,1.8-1.8h11.2c1,0,1.8,0.8,1.8,1.8
						C99.6,51.5,98.8,52.3,97.8,52.3z"/>
				</g>
			</g>
		</g>
		<g>
			<g>
				<g>
					<path fill="#F8F9FA" d="M97.8,58.3H86.6c-1,0-1.8-0.8-1.8-1.8c0-1,0.8-1.8,1.8-1.8h11.2c1,0,1.8,0.8,1.8,1.8
						C99.6,57.5,98.8,58.3,97.8,58.3z"/>
				</g>
			</g>
		</g>
		<g>
			<g>
				<g>
					<path fill="#F8F9FA" d="M97.8,64.4H86.6c-1,0-1.8-0.8-1.8-1.8c0-1,0.8-1.8,1.8-1.8h11.2c1,0,1.8,0.8,1.8,1.8
						C99.6,63.6,98.8,64.4,97.8,64.4z"/>
				</g>
			</g>
		</g>
		<g>
			<g>
				<g>
					<path fill="#F8F9FA" d="M97.8,70.5H86.6c-1,0-1.8-0.8-1.8-1.8s0.8-1.8,1.8-1.8h11.2c1,0,1.8,0.8,1.8,1.8S98.8,70.5,97.8,70.5z"
						/>
				</g>
			</g>
		</g>
		<g>
			<g>
				<g>
					<path fill="#F8F9FA" d="M97.8,76.6H86.6c-1,0-1.8-0.8-1.8-1.8s0.8-1.8,1.8-1.8h11.2c1,0,1.8,0.8,1.8,1.8S98.8,76.6,97.8,76.6z"
						/>
				</g>
			</g>
		</g>
		<g>
			<g>
				<g>
					<path fill="#F8F9FA" d="M97.8,82.6H86.6c-1,0-1.8-0.8-1.8-1.8s0.8-1.8,1.8-1.8h11.2c1,0,1.8,0.8,1.8,1.8S98.8,82.6,97.8,82.6z"
						/>
				</g>
			</g>
		</g>
	</g>
	<g>
		<g>
			<g>
				<g>
					<path fill="#F8F9FA" d="M74.4,121c-2.6,0-4.7-2.1-4.7-4.7c0-2.6,2.1-4.7,4.7-4.7c2.6,0,4.7,2.1,4.7,4.7
						C79.1,118.9,77,121,74.4,121z M74.4,114c-1.3,0-2.3,1-2.3,2.3s1,2.3,2.3,2.3s2.3-1,2.3-2.3S75.7,114,74.4,114z"/>
				</g>
			</g>
		</g>
		<g>
			<g>
				<g>
					<path fill="#F8F9FA" d="M62.3,121c-2.6,0-4.7-2.1-4.7-4.7c0-2.6,2.1-4.7,4.7-4.7c2.6,0,4.7,2.1,4.7,4.7
						C67,118.9,64.9,121,62.3,121z M62.3,114c-1.3,0-2.3,1-2.3,2.3s1,2.3,2.3,2.3s2.3-1,2.3-2.3S63.5,114,62.3,114z"/>
				</g>
			</g>
		</g>
		<g>
			<g>
				<g>
					<path fill="#F8F9FA" d="M50.1,121c-2.6,0-4.7-2.1-4.7-4.7c0-2.6,2.1-4.7,4.7-4.7s4.7,2.1,4.7,4.7C54.8,118.9,52.7,121,50.1,121
						z M50.1,114c-1.3,0-2.3,1-2.3,2.3s1,2.3,2.3,2.3c1.3,0,2.3-1,2.3-2.3S51.4,114,50.1,114z"/>
				</g>
			</g>
		</g>
		<g>
			<g>
				<g>
					<path fill="#F8F9FA" d="M77.1,115c-0.3,0-0.6-0.1-0.9-0.4c-0.5-0.5-0.5-1.2,0-1.7l3.1-3.1V97.4c0-0.7,0.5-1.2,1.2-1.2
						s1.2,0.5,1.2,1.2v13c0,0.3-0.1,0.6-0.4,0.9l-3.4,3.4C77.7,114.9,77.4,115,77.1,115z"/>
				</g>
			</g>
		</g>
		<g>
			<g>
				<g>
					<path fill="#F8F9FA" d="M64.9,115c-0.3,0-0.6-0.1-0.9-0.4c-0.5-0.5-0.5-1.2,0-1.7l3.1-3.1V97.4c0-0.7,0.5-1.2,1.2-1.2
						s1.2,0.5,1.2,1.2v13c0,0.3-0.1,0.6-0.4,0.9l-3.4,3.4C65.5,114.9,65.2,115,64.9,115z"/>
				</g>
			</g>
		</g>
		<g>
			<g>
				<g>
					<path fill="#F8F9FA" d="M52.8,115c-0.3,0-0.6-0.1-0.9-0.4c-0.5-0.5-0.5-1.2,0-1.7l3.1-3.1V97.4c0-0.7,0.5-1.2,1.2-1.2
						c0.7,0,1.2,0.5,1.2,1.2v13c0,0.3-0.1,0.6-0.4,0.9l-3.4,3.4C53.4,114.9,53.1,115,52.8,115z"/>
				</g>
			</g>
		</g>
		<g>
			<g>
				<g>
					<path fill="#F8F9FA" d="M20.4,109.1c-2.6,0-4.7-2.1-4.7-4.7s2.1-4.7,4.7-4.7c2.6,0,4.7,2.1,4.7,4.7S23,109.1,20.4,109.1z
						 M20.4,102c-1.3,0-2.3,1-2.3,2.3s1,2.3,2.3,2.3c1.3,0,2.3-1,2.3-2.3S21.6,102,20.4,102z"/>
				</g>
			</g>
		</g>
		<g>
			<g>
				<g>
					<path fill="#F8F9FA" d="M22.8,102.9c-0.3,0-0.6-0.1-0.9-0.4c-0.5-0.5-0.5-1.2,0-1.7l9.9-9.9c0.2-0.2,0.5-0.4,0.9-0.4h10.8
						c0.7,0,1.2,0.5,1.2,1.2c0,0.7-0.5,1.2-1.2,1.2H33.2l-9.6,9.6C23.4,102.8,23.1,102.9,22.8,102.9z"/>
				</g>
			</g>
		</g>
		<g>
			<g>
				<g>
					<path fill="#F8F9FA" d="M80.5,99.8c-1,0-1.8-0.8-1.8-1.8V86.7c0-1,0.8-1.8,1.8-1.8s1.8,0.8,1.8,1.8v11.2
						C82.3,98.9,81.5,99.8,80.5,99.8z"/>
				</g>
			</g>
		</g>
		<g>
			<g>
				<g>
					<path fill="#F8F9FA" d="M74.4,99.8c-1,0-1.8-0.8-1.8-1.8V86.7c0-1,0.8-1.8,1.8-1.8s1.8,0.8,1.8,1.8v11.2
						C76.2,98.9,75.4,99.8,74.4,99.8z"/>
				</g>
			</g>
		</g>
		<g>
			<g>
				<g>
					<path fill="#F8F9FA" d="M68.3,99.8c-1,0-1.8-0.8-1.8-1.8V86.7c0-1,0.8-1.8,1.8-1.8s1.8,0.8,1.8,1.8v11.2
						C70.1,98.9,69.3,99.8,68.3,99.8z"/>
				</g>
			</g>
		</g>
		<g>
			<g>
				<g>
					<path fill="#F8F9FA" d="M62.3,99.8c-1,0-1.8-0.8-1.8-1.8V86.7c0-1,0.8-1.8,1.8-1.8c1,0,1.8,0.8,1.8,1.8v11.2
						C64.1,98.9,63.3,99.8,62.3,99.8z"/>
				</g>
			</g>
		</g>
		<g>
			<g>
				<g>
					<path fill="#F8F9FA" d="M56.2,99.8c-1,0-1.8-0.8-1.8-1.8V86.7c0-1,0.8-1.8,1.8-1.8c1,0,1.8,0.8,1.8,1.8v11.2
						C58,98.9,57.2,99.8,56.2,99.8z"/>
				</g>
			</g>
		</g>
		<g>
			<g>
				<g>
					<path fill="#F8F9FA" d="M50.1,99.8c-1,0-1.8-0.8-1.8-1.8V86.7c0-1,0.8-1.8,1.8-1.8c1,0,1.8,0.8,1.8,1.8v11.2
						C51.9,98.9,51.1,99.8,50.1,99.8z"/>
				</g>
			</g>
		</g>
		<g>
			<g>
				<g>
					<path fill="#F8F9FA" d="M44,99.8c-1,0-1.8-0.8-1.8-1.8V86.7c0-1,0.8-1.8,1.8-1.8c1,0,1.8,0.8,1.8,1.8v11.2
						C45.8,98.9,45,99.8,44,99.8z"/>
				</g>
			</g>
		</g>
	</g>
	<g>
		<g>
			<g>
				<g>
					<path fill="#F8F9FA" d="M8.9,79.3c-2.6,0-4.7-2.1-4.7-4.7c0-2.6,2.1-4.7,4.7-4.7s4.7,2.1,4.7,4.7C13.6,77.1,11.5,79.3,8.9,79.3
						z M8.9,72.2c-1.3,0-2.3,1-2.3,2.3c0,1.3,1,2.3,2.3,2.3s2.3-1,2.3-2.3C11.2,73.3,10.2,72.2,8.9,72.2z"/>
				</g>
			</g>
		</g>
		<g>
			<g>
				<g>
					<path fill="#F8F9FA" d="M8.9,67.1c-2.6,0-4.7-2.1-4.7-4.7c0-2.6,2.1-4.7,4.7-4.7s4.7,2.1,4.7,4.7C13.6,65,11.5,67.1,8.9,67.1z
						 M8.9,60.1c-1.3,0-2.3,1-2.3,2.3s1,2.3,2.3,2.3s2.3-1,2.3-2.3S10.2,60.1,8.9,60.1z"/>
				</g>
			</g>
		</g>
		<g>
			<g>
				<g>
					<path fill="#F8F9FA" d="M8.9,55c-2.6,0-4.7-2.1-4.7-4.7s2.1-4.7,4.7-4.7s4.7,2.1,4.7,4.7S11.5,55,8.9,55z M8.9,47.9
						c-1.3,0-2.3,1-2.3,2.3s1,2.3,2.3,2.3s2.3-1,2.3-2.3S10.2,47.9,8.9,47.9z"/>
				</g>
			</g>
		</g>
		<g>
			<g>
				<g>
					<path fill="#F8F9FA" d="M27.8,81.8h-13c-0.3,0-0.6-0.1-0.9-0.4l-3.4-3.4c-0.5-0.5-0.5-1.2,0-1.7s1.2-0.5,1.7,0l3.1,3.1h12.5
						c0.7,0,1.2,0.5,1.2,1.2C29,81.3,28.5,81.8,27.8,81.8z"/>
				</g>
			</g>
		</g>
		<g>
			<g>
				<g>
					<path fill="#F8F9FA" d="M27.8,69.7h-13c-0.3,0-0.6-0.1-0.9-0.4l-3.4-3.4c-0.5-0.5-0.5-1.2,0-1.7c0.5-0.5,1.2-0.5,1.7,0l3.1,3.1
						h12.5c0.7,0,1.2,0.5,1.2,1.2C29,69.1,28.5,69.7,27.8,69.7z"/>
				</g>
			</g>
		</g>
		<g>
			<g>
				<g>
					<path fill="#F8F9FA" d="M27.8,57.5h-13c-0.3,0-0.6-0.1-0.9-0.4l-3.4-3.4c-0.5-0.5-0.5-1.2,0-1.7c0.5-0.5,1.2-0.5,1.7,0l3.1,3.1
						h12.5c0.7,0,1.2,0.5,1.2,1.2S28.5,57.5,27.8,57.5z"/>
				</g>
			</g>
		</g>
		<g>
			<g>
				<g>
					<path fill="#F8F9FA" d="M20.9,25.2c-2.6,0-4.7-2.1-4.7-4.7s2.1-4.7,4.7-4.7c2.6,0,4.7,2.1,4.7,4.7S23.5,25.2,20.9,25.2z
						 M20.9,18.2c-1.3,0-2.3,1-2.3,2.3c0,1.3,1,2.3,2.3,2.3c1.3,0,2.3-1,2.3-2.3C23.2,19.2,22.1,18.2,20.9,18.2z"/>
				</g>
			</g>
		</g>
		<g>
			<g>
				<g>
					<path fill="#F8F9FA" d="M33.4,44.8c-0.7,0-1.2-0.5-1.2-1.2V33.4l-9.6-9.6c-0.5-0.5-0.5-1.2,0-1.7s1.2-0.5,1.7,0l9.9,9.9
						c0.2,0.2,0.4,0.5,0.4,0.9v10.8C34.6,44.3,34.1,44.8,33.4,44.8z"/>
				</g>
			</g>
		</g>
		<g>
			<g>
				<g>
					<path fill="#F8F9FA" d="M38.4,82.4H27.2c-1,0-1.8-0.8-1.8-1.8c0-1,0.8-1.8,1.8-1.8h11.2c1,0,1.8,0.8,1.8,1.8
						C40.3,81.6,39.4,82.4,38.4,82.4z"/>
				</g>
			</g>
		</g>
		<g>
			<g>
				<g>
					<path fill="#F8F9FA" d="M38.4,76.4H27.2c-1,0-1.8-0.8-1.8-1.8c0-1,0.8-1.8,1.8-1.8h11.2c1,0,1.8,0.8,1.8,1.8
						C40.3,75.5,39.4,76.4,38.4,76.4z"/>
				</g>
			</g>
		</g>
		<g>
			<g>
				<g>
					<path fill="#F8F9FA" d="M38.4,70.3H27.2c-1,0-1.8-0.8-1.8-1.8c0-1,0.8-1.8,1.8-1.8h11.2c1,0,1.8,0.8,1.8,1.8
						C40.3,69.5,39.4,70.3,38.4,70.3z"/>
				</g>
			</g>
		</g>
		<g>
			<g>
				<g>
					<path fill="#F8F9FA" d="M38.4,64.2H27.2c-1,0-1.8-0.8-1.8-1.8c0-1,0.8-1.8,1.8-1.8h11.2c1,0,1.8,0.8,1.8,1.8
						C40.3,63.4,39.4,64.2,38.4,64.2z"/>
				</g>
			</g>
		</g>
		<g>
			<g>
				<g>
					<path fill="#F8F9FA" d="M38.4,58.1H27.2c-1,0-1.8-0.8-1.8-1.8s0.8-1.8,1.8-1.8h11.2c1,0,1.8,0.8,1.8,1.8S39.4,58.1,38.4,58.1z"
						/>
				</g>
			</g>
		</g>
		<g>
			<g>
				<g>
					<path fill="#F8F9FA" d="M38.4,52.1H27.2c-1,0-1.8-0.8-1.8-1.8s0.8-1.8,1.8-1.8h11.2c1,0,1.8,0.8,1.8,1.8S39.4,52.1,38.4,52.1z"
						/>
				</g>
			</g>
		</g>
		<g>
			<g>
				<g>
					<path fill="#F8F9FA" d="M38.4,46H27.2c-1,0-1.8-0.8-1.8-1.8c0-1,0.8-1.8,1.8-1.8h11.2c1,0,1.8,0.8,1.8,1.8
						C40.3,45.2,39.4,46,38.4,46z"/>
				</g>
			</g>
		</g>
	</g>
</g>
<g display="none">
	<g display="inline">
		<g>
			<path fill="#F8F9FA" d="M116,15.7H9c-3.1,0-5.5,2.5-5.5,5.5V82v4.6c0,3.1,2.5,5.5,5.5,5.5h43.4v12.7H38.7c-1.2,0-2.2,1-2.2,2.2
				c0,1.2,1,2.2,2.2,2.2h15.9h15.8h15.9c1.2,0,2.2-1,2.2-2.2c0-1.2-1-2.2-2.2-2.2H72.6V92.1H116c3.1,0,5.5-2.5,5.5-5.5V82V21.3
				C121.5,18.2,119,15.7,116,15.7z M117.1,64.8c-2.3,4.2-4.6,6.2-7.4,6.2c-3.1,0-5.5-2.6-7.6-6.5c1.9-4.1,3.5-9,5.1-13.8
				c2.7-8.3,5.6-17.5,9.9-20V64.8z M9,20.2h107c0.6,0,1.1,0.5,1.1,1.1v4.6c-7.2,1.9-10.7,12.8-14.1,23.4c-1,3.2-2.1,6.6-3.3,9.6
				c-1.1-2.9-2.1-6.1-3.1-9.3c-3.6-11.3-7.4-22.9-15.3-22.9c-3.7,0-6.5,2.6-8.8,6.4c-2.5-4.5-5.7-7.5-10.1-7.5
				c-8.7,0-12.6,12-16.3,23.7c-1,3.2-2.1,6.5-3.3,9.6c-1.1-2.9-2.1-6.1-3.1-9.3c-3.6-11.3-7.3-22.9-15.3-22.9
				c-3.7,0-6.5,2.6-8.8,6.4c-2.1-3.7-4.6-6.4-7.8-7.2v-4.6C7.9,20.7,8.4,20.2,9,20.2z M98.5,61.8c-2.1,4.7-4.5,8.1-7.6,8.1
				c-5.5,0-9-10.9-12.1-20.6c-1.6-4.8-3.1-9.7-5.1-13.8c2.1-3.9,4.5-6.6,7.6-6.6c6.3,0,9.8,10.9,13.2,21.4
				C95.7,54.3,97,58.3,98.5,61.8z M70.1,38.1c-1.5,3.5-2.8,7.5-4,11.5C62.7,60.1,59.2,71,52.9,71c-3.1,0-5.5-2.6-7.6-6.6
				c1.9-4.1,3.5-9,5.1-13.8C53.5,41,57,30,62.5,30C65.5,30,68,33.4,70.1,38.1z M41.7,61.8c-2.1,4.7-4.5,8.1-7.6,8.1
				c-5.5,0-9-10.9-12.1-20.6c-1.6-4.8-3.1-9.7-5.1-13.8c2.1-3.9,4.5-6.5,7.6-6.5c6.3,0,9.8,10.9,13.1,21.4
				C38.9,54.3,40.2,58.3,41.7,61.8z M7.9,30.7c2.1,1.2,3.8,3.9,5.4,7.4c-1.5,3.5-2.8,7.5-4,11.5c-0.4,1.4-0.9,2.7-1.3,4.1V30.7z
				 M68.2,104.8H56.8v-2.8l11.3-6.2V104.8z M117.1,86.6c0,0.6-0.5,1.1-1.1,1.1H70.4H54.6H9c-0.6,0-1.1-0.5-1.1-1.1v-2.4h109.2V86.6z
				 M7.9,79.7V60.3c1.2-3.2,2.4-6.6,3.4-10c1-3.2,2-6.3,3.1-9.3c1.2,3,2.3,6.4,3.3,9.6c3.7,11.6,7.6,23.7,16.3,23.7
				c4.4,0,7.5-3,10.1-7.5c2.3,3.9,5.1,6.4,8.8,6.4c7.9,0,11.6-11.6,15.3-22.9c1-3.2,2-6.3,3.1-9.3c1.2,3,2.3,6.4,3.3,9.6
				c3.7,11.6,7.6,23.7,16.3,23.7c4.4,0,7.5-3,10.1-7.5c2.3,3.9,5.1,6.4,8.8,6.4c2.8,0,5.2-1.4,7.4-4.3v10.9H7.9z"/>
		</g>
	</g>
</g>
<g display="none">
	<path display="inline" fill="#336264" d="M24.8,3.9l-9.4,9.4c-0.4,0.4-0.7,1-0.7,1.6v7.5H5.5c-1.2,0-2.2,1-2.2,2.2v22.3
		c0,1.2,1,2.2,2.2,2.2h9.2v30.6H5.5c-1.2,0-2.2,1-2.2,2.2v10.8c0,1.2,1,2.2,2.2,2.2h9.2v24.5c0,1.2,1,2.2,2.2,2.2h102.5
		c1.2,0,2.2-1,2.2-2.2V5.5c0-1.2-1-2.2-2.2-2.2H26.3C25.7,3.3,25.2,3.5,24.8,3.9z M7.1,26.2H30v19.1H7.1V26.2z M7.1,83.5H30v7.6H7.1
		V83.5z M117.9,117.9H18.6V95h13.4c1.1,0,1.9-0.9,1.9-1.9v-3.8h1.9c1.1,0,1.9-0.9,1.9-1.9v0c0-1.1-0.9-1.9-1.9-1.9h-1.9v-3.8
		c0-1.1-0.9-1.9-1.9-1.9H18.6V49.1h13.4c1.1,0,1.9-0.9,1.9-1.9v-1.9h1.9c1.1,0,1.9-0.9,1.9-1.9v0c0-1.1-0.9-1.9-1.9-1.9h-1.9V30h1.9
		c1.1,0,1.9-0.9,1.9-1.9v0c0-1.1-0.9-1.9-1.9-1.9h-1.9v-1.9c0-1.1-0.9-1.9-1.9-1.9H18.6v-6.8L27,7.1h90.9V117.9z"/>
	<path display="inline" fill="#336264" d="M77.8,110.3h22.9c1.1,0,1.9-0.9,1.9-1.9v-1.9h1.9c1.1,0,1.9-0.9,1.9-1.9v0
		c0-1.1-0.9-1.9-1.9-1.9h-1.9v-3.8h1.9c1.1,0,1.9-0.9,1.9-1.9l0,0c0-1.1-0.9-1.9-1.9-1.9h-1.9v-3.8h1.9c1.1,0,1.9-0.9,1.9-1.9v0
		c0-1.1-0.9-1.9-1.9-1.9h-1.9v-3.8h1.9c1.1,0,1.9-0.9,1.9-1.9v0c0-1.1-0.9-1.9-1.9-1.9h-1.9v-3.8h1.9c1.1,0,1.9-0.9,1.9-1.9l0,0
		c0-1.1-0.9-1.9-1.9-1.9h-1.9v-3.8h1.9c1.1,0,1.9-0.9,1.9-1.9v0c0-1.1-0.9-1.9-1.9-1.9h-1.9v-3.8h1.9c1.1,0,1.9-0.9,1.9-1.9v0
		c0-1.1-0.9-1.9-1.9-1.9h-1.9v-3.8h1.9c1.1,0,1.9-0.9,1.9-1.9v0c0-1.1-0.9-1.9-1.9-1.9h-1.9v-3.8h1.9c1.1,0,1.9-0.9,1.9-1.9v0
		c0-1.1-0.9-1.9-1.9-1.9h-1.9v-3.8h1.9c1.1,0,1.9-0.9,1.9-1.9v0c0-1.1-0.9-1.9-1.9-1.9h-1.9V30h1.9c1.1,0,1.9-0.9,1.9-1.9v0
		c0-1.1-0.9-1.9-1.9-1.9h-1.9v-3.8h1.9c1.1,0,1.9-0.9,1.9-1.9v0c0-1.1-0.9-1.9-1.9-1.9h-1.9v-1.9c0-1.1-0.9-1.9-1.9-1.9H77.8
		c-1.1,0-1.9,0.9-1.9,1.9v1.9H74c-1.1,0-1.9,0.9-1.9,1.9v0c0,1.1,0.9,1.9,1.9,1.9h1.9v3.8H74c-1.1,0-1.9,0.9-1.9,1.9v0
		c0,1.1,0.9,1.9,1.9,1.9h1.9v3.8H74c-1.1,0-1.9,0.9-1.9,1.9v0c0,1.1,0.9,1.9,1.9,1.9h1.9v3.8H74c-1.1,0-1.9,0.9-1.9,1.9v0
		c0,1.1,0.9,1.9,1.9,1.9h1.9v3.8H74c-1.1,0-1.9,0.9-1.9,1.9v0c0,1.1,0.9,1.9,1.9,1.9h1.9v3.8H74c-1.1,0-1.9,0.9-1.9,1.9v0
		c0,1.1,0.9,1.9,1.9,1.9h1.9v3.8H74c-1.1,0-1.9,0.9-1.9,1.9v0c0,1.1,0.9,1.9,1.9,1.9h1.9v3.8H74c-1.1,0-1.9,0.9-1.9,1.9l0,0
		c0,1.1,0.9,1.9,1.9,1.9h1.9v3.8H74c-1.1,0-1.9,0.9-1.9,1.9v0c0,1.1,0.9,1.9,1.9,1.9h1.9v3.8H74c-1.1,0-1.9,0.9-1.9,1.9v0
		c0,1.1,0.9,1.9,1.9,1.9h1.9V95H74c-1.1,0-1.9,0.9-1.9,1.9l0,0c0,1.1,0.9,1.9,1.9,1.9h1.9v3.8H74c-1.1,0-1.9,0.9-1.9,1.9v0
		c0,1.1,0.9,1.9,1.9,1.9h1.9v1.9C75.9,109.4,76.7,110.3,77.8,110.3z M79.7,18.6h19.1v87.9H79.7V18.6z"/>
	<circle display="inline" fill="#336264" cx="89.2" cy="24.3" r="1.9"/>
	<path display="inline" fill="#336264" d="M62.5,18.6H51c-1.1,0-1.9,0.9-1.9,1.9v7.6c0,1.1,0.9,1.9,1.9,1.9h11.5
		c1.1,0,1.9-0.9,1.9-1.9v-7.6C64.4,19.4,63.6,18.6,62.5,18.6z M60.6,26.2h-7.6v-3.8h7.6V26.2z"/>
	<path display="inline" fill="#336264" d="M62.5,37.7H51c-1.1,0-1.9,0.9-1.9,1.9v7.6c0,1.1,0.9,1.9,1.9,1.9h11.5
		c1.1,0,1.9-0.9,1.9-1.9v-7.6C64.4,38.5,63.6,37.7,62.5,37.7z M60.6,45.3h-7.6v-3.8h7.6V45.3z"/>
	<path display="inline" fill="#336264" d="M37.7,56.8v1.9h-3.8v-1.9c0-1.1-0.9-1.9-1.9-1.9h0c-1.1,0-1.9,0.9-1.9,1.9v1.9h-1.9
		c-1.1,0-1.9,0.9-1.9,1.9v7.6c0,1.1,0.9,1.9,1.9,1.9H30v1.9c0,1.1,0.9,1.9,1.9,1.9h0c1.1,0,1.9-0.9,1.9-1.9v-1.9h3.8v1.9
		c0,1.1,0.9,1.9,1.9,1.9h0c1.1,0,1.9-0.9,1.9-1.9v-1.9h3.8v1.9c0,1.1,0.9,1.9,1.9,1.9h0c1.1,0,1.9-0.9,1.9-1.9v-1.9H51
		c1.1,0,1.9-0.9,1.9-1.9v-7.6c0-1.1-0.9-1.9-1.9-1.9h-1.9v-1.9c0-1.1-0.9-1.9-1.9-1.9h0c-1.1,0-1.9,0.9-1.9,1.9v1.9h-3.8v-1.9
		c0-1.1-0.9-1.9-1.9-1.9h0C38.5,54.9,37.7,55.7,37.7,56.8z M49.1,66.3H30v-3.8h19.1V66.3z"/>
	<path display="inline" fill="#336264" d="M30,98.8c-4.2,0-7.6,3.4-7.6,7.6c0,4.2,3.4,7.6,7.6,7.6s7.6-3.4,7.6-7.6
		C37.7,102.2,34.2,98.8,30,98.8z M30,110.3c-2.1,0-3.8-1.7-3.8-3.8c0-2.1,1.7-3.8,3.8-3.8s3.8,1.7,3.8,3.8
		C33.8,108.5,32.1,110.3,30,110.3z"/>
	<path display="inline" fill="#336264" d="M49.1,98.8c-4.2,0-7.6,3.4-7.6,7.6c0,4.2,3.4,7.6,7.6,7.6s7.6-3.4,7.6-7.6
		C56.8,102.2,53.3,98.8,49.1,98.8z M49.1,110.3c-2.1,0-3.8-1.7-3.8-3.8c0-2.1,1.7-3.8,3.8-3.8c2.1,0,3.8,1.7,3.8,3.8
		C52.9,108.5,51.2,110.3,49.1,110.3z"/>
	<path display="inline" fill="#336264" d="M47.2,83.5L47.2,83.5c1.1,0,1.9,0.9,1.9,1.9v3.8c0,1.1-0.9,1.9-1.9,1.9h0
		c-1.1,0-1.9-0.9-1.9-1.9v-3.8C45.3,84.4,46.2,83.5,47.2,83.5z"/>
	<path display="inline" fill="#336264" d="M54.9,83.5L54.9,83.5c1.1,0,1.9,0.9,1.9,1.9v3.8c0,1.1-0.9,1.9-1.9,1.9h0
		c-1.1,0-1.9-0.9-1.9-1.9v-3.8C52.9,84.4,53.8,83.5,54.9,83.5z"/>
	<path display="inline" fill="#336264" d="M62.5,83.5L62.5,83.5c1.1,0,1.9,0.9,1.9,1.9v3.8c0,1.1-0.9,1.9-1.9,1.9h0
		c-1.1,0-1.9-0.9-1.9-1.9v-3.8C60.6,84.4,61.4,83.5,62.5,83.5z"/>
	<circle display="inline" fill="#336264" cx="26.2" cy="14.7" r="1.9"/>
</g>
<g display="none">
	<g display="inline">
		<g>
			<path fill="#F8F9FA" d="M112.2,101.5H49.6V78.8L76,50.6c4-4.3,4.7-10.5,2.3-15.5c-0.2-0.4-0.4-0.8-0.6-1.2
				c-0.1-0.2-0.2-0.4-0.3-0.5c-0.4-0.5-0.8-1.1-1.2-1.5h8.5v29.1c0,1.2,1,2.3,2.3,2.3h2.6v6.9c-0.9,0-1.7,0.5-2,1.3l-1.9,3.9
				c-0.3,0.6-0.3,1.3,0,1.9l4.3,9.4c0.4,0.8,1.2,1.3,2,1.3h1.3v4c0,1.2,1,2.3,2.3,2.3s2.3-1,2.3-2.3v-4H99c0.9,0,1.7-0.5,2-1.3
				l4.3-9.4c0.3-0.6,0.3-1.3,0-1.9l-1.9-3.9c-0.4-0.8-1.2-1.3-2-1.3v-6.9h2.6c1.2,0,2.3-1,2.3-2.3V27.8c0-0.3,0.1-0.5,0.1-0.8
				c0-5.9-4.7-10.7-10.5-10.9L43.2,3.3c0,0,0,0-0.1,0c-0.8-0.2-1.6-0.3-2.4-0.3c-3.2,0-6.1,1.2-8.3,3.5c-4.5,4.5-4.6,11.7-0.3,16.4
				l15.4,16.6L24.3,61c-0.3,0.3-0.7,0.7-1,1c-2.9,2.8-4.8,6.8-4.8,11.1v28.3h-5.8c-1.2,0-2.3,1-2.3,2.3v16c0,1.2,1,2.3,2.3,2.3h99.3
				c1.2,0,2.3-1,2.3-2.3v-16C114.4,102.5,113.4,101.5,112.2,101.5z M97.5,83.4h-4.2L90,76.3l0.8-1.7h9.2l0.8,1.7L97.5,83.4z
				 M44.2,68.9c0.4,1.1,0.7,2.4,0.7,3.7c0,5.6-4.6,10.2-10.2,10.2s-10.2-4.6-10.2-10.2c0-5.6,4.6-10.2,10.2-10.2
				c0.6,0,1.2,0.1,1.8,0.2C39.9,63.3,42.8,65.7,44.2,68.9z M84.4,27c0,0.1,0,0.2,0,0.3H71.3L53.2,10.4l34.9,8.4
				C85.9,20.9,84.4,23.8,84.4,27z M72.4,34.5c0.2,0.2,0.3,0.4,0.5,0.5c0.2,0.2,0.4,0.5,0.6,0.8c0.9,1.4,1.5,3,1.5,4.7
				c0,2.3-0.8,4.5-2.5,6.2c-1.6,1.6-3.8,2.5-6,2.5c-2.4,0-4.6-1-6.3-2.7l-6.3-6.8l5.7-5.3c1.7-1.6,4-2.5,6.3-2.5
				C68.4,31.9,70.6,32.8,72.4,34.5z M96.9,69.9h-3v-6.8h3V69.9z M99.2,58.7h-7.5H89V35.9c1.8,1.3,4,2.1,6.4,2.1
				c2.4,0,4.6-0.8,6.4-2.1v22.7H99.2z M101.9,27c0,0.2,0,0.4-0.1,0.6c0,0,0,0.1,0,0.1v0.1c-0.4,3.2-3.1,5.7-6.4,5.7
				c-2.9,0-5.4-2-6.2-4.6c0-0.1,0-0.2-0.1-0.3C89.1,28.3,89,28,89,27.8v-0.1c0,0,0-0.1,0-0.1c0-0.2-0.1-0.4-0.1-0.6
				c0-3.6,2.9-6.5,6.5-6.5C99,20.5,101.9,23.4,101.9,27z M35.4,19.9c-2.7-2.9-2.6-7.3,0.2-10.1c1.4-1.4,3.2-2.1,5.2-2.1
				c1.9,0,3.6,0.7,5,2l19.2,17.9c-3.1,0.2-6.1,1.5-8.4,3.6l-5.7,5.3L35.4,19.9z M56.9,49.5c2.5,2.6,5.9,4.2,9.6,4.2c0,0,0,0,0,0
				c0.2,0,0.4,0,0.6-0.1L49.5,72.3c-0.1-1.4-0.4-2.8-0.8-4.1c-1.6-5.2-6-9.1-11.4-10.1c-0.9-0.2-1.9-0.3-2.9-0.3l16.1-15L56.9,49.5z
				 M23.1,82.1c0.3,0.3,0.5,0.6,0.8,0.9c2.9,2.9,6.7,4.5,10.8,4.5c0,0,0,0,0,0c3.8,0,7.5-1.5,10.3-4v17.9h-22V82.1z M109.9,117.4
				H15.1V106h94.8V117.4z"/>
		</g>
	</g>
	<g display="inline">
		<g>
			<path fill="#F8F9FA" d="M28.7,72.5c0,3.3,2.7,5.9,5.9,5.9s5.9-2.7,5.9-5.9s-2.7-5.9-5.9-5.9S28.7,69.3,28.7,72.5z M38.3,72.5
				c0,2-1.6,3.7-3.7,3.7S31,74.6,31,72.5c0-2,1.6-3.7,3.7-3.7S38.3,70.5,38.3,72.5z"/>
		</g>
	</g>
	<g display="inline">
		<g>
			<path fill="#F8F9FA" d="M66.4,46.2c3.3,0,5.9-2.7,5.9-5.9c0-3.3-2.7-5.9-5.9-5.9s-5.9,2.7-5.9,5.9C60.5,43.5,63.1,46.2,66.4,46.2
				z M66.4,36.6c2,0,3.7,1.6,3.7,3.7s-1.6,3.7-3.7,3.7s-3.7-1.6-3.7-3.7S64.4,36.6,66.4,36.6z"/>
		</g>
	</g>
	<g display="inline">
		<g>
			<path fill="#F8F9FA" d="M91,27c0,2.4,2,4.4,4.4,4.4c2.4,0,4.4-2,4.4-4.4s-2-4.4-4.4-4.4C93,22.6,91,24.6,91,27z M97.6,27
				c0,1.2-1,2.2-2.2,2.2s-2.2-1-2.2-2.2s1-2.2,2.2-2.2S97.6,25.8,97.6,27z"/>
		</g>
	</g>
</g>
<g display="none">
	<g display="inline">
		<g>
			<path fill="#F8F9FA" d="M63.7,61.6c2.6,0,5.3-1.2,7.2-3.1l-1.9-2.1c-1.4,1.4-3.3,2.2-5.2,2.2c-3.7,0-6.7-2.9-6.7-6.6
				c0-3.7,2.9-6.5,6.7-6.5c1.9,0,3.8,0.9,5.2,2.4l1.8-2.3c-1.8-1.8-4.4-2.9-7.1-2.9c-5.5,0-9.8,4.1-9.8,9.4
				C54.1,57.4,58.3,61.6,63.7,61.6z"/>
		</g>
	</g>
	<g display="inline">
		<g>
			<path fill="#F8F9FA" d="M116.1,15.6H8.9c-3.1,0-5.5,2.5-5.5,5.5V82v4.6c0,3.1,2.5,5.5,5.5,5.5h43.5v12.8H38.7
				c-1.2,0-2.2,1-2.2,2.2s1,2.2,2.2,2.2h15.9h15.8h15.9c1.2,0,2.2-1,2.2-2.2s-1-2.2-2.2-2.2H72.6V92.2h43.5c3.1,0,5.5-2.5,5.5-5.5
				V82V21.2C121.7,18.1,119.2,15.6,116.1,15.6z M68.2,104.9H56.8v-2.8L68.2,96V104.9z M117.2,86.6c0,0.6-0.5,1.1-1.1,1.1H70.4H54.6
				H8.9c-0.6,0-1.1-0.5-1.1-1.1v-2.4h109.4V86.6z M117.2,79.8H7.8V21.2c0-0.6,0.5-1.1,1.1-1.1h107.2c0.6,0,1.1,0.5,1.1,1.1V79.8z"/>
		</g>
	</g>
	<g display="inline">
		<g>
			<path fill="#F8F9FA" d="M95.8,29H29.2c-0.6,0-1.1,0.5-1.1,1.1v39.6c0,0.6,0.5,1.1,1.1,1.1h66.5c0.6,0,1.1-0.5,1.1-1.1V30.1
				C96.9,29.5,96.4,29,95.8,29z M94.7,68.6H30.3V36h64.3V68.6z M94.7,33.8H30.3v-2.6h64.3V33.8z"/>
		</g>
	</g>
	<g display="inline">
		<g>
			<polygon fill="#F8F9FA" points="81.5,57.1 83.4,60.6 84.5,60 85.6,59.4 83.7,55.9 87.1,55.5 78.5,48.9 79.4,59.7 			"/>
		</g>
	</g>
</g>
<path display="none" fill="#F8F9FA" d="M121,17l-4.5-4.5l1.9-1.9c0.9-0.9,0.9-2.3,0-3.2s-2.3-0.9-3.2,0l-1.9,1.9L108,4
	c-0.7-0.7-1.7-0.7-2.4,0s-0.7,1.7,0,2.4l5.3,5.3l-9.8,9.8l-9.7-9.7c-0.7-0.7-1.7-0.7-2.4,0c-0.7,0.7-0.7,1.7,0,2.4l9.7,9.7l-9.8,9.8
	L74.1,19c-0.7-0.7-1.7-0.7-2.4,0c-0.7,0.7-0.7,1.7,0,2.4l14.8,14.8L76.6,46L57.3,26.6c-0.7-0.7-1.7-0.7-2.4,0s-0.7,1.7,0,2.4
	l19.4,19.4l-9.8,9.8l-24-24c-0.7-0.7-1.7-0.7-2.4,0s-0.7,1.7,0,2.4l24,24l-9.8,9.8L23.3,41.6c-0.7-0.7-1.7-0.7-2.4,0s-0.7,1.7,0,2.4
	l28.8,28.8l-9.8,9.8L6.4,49.1c-0.7-0.7-1.7-0.7-2.4,0s-0.7,1.7,0,2.4L37.6,85l-8.6,8.6l-3.1-3.1c-0.7-0.7-1.7-0.7-2.4,0L11,103.1
	c-0.7,0.7-0.7,1.7,0,2.4l9.3,9.3c0.7,0.7,1.7,0.7,2.4,0l12.5-12.5c0.7-0.7,0.7-1.7,0-2.4l-3.1-3.1l8.6-8.6L73.5,121
	c0.3,0.3,0.8,0.5,1.2,0.5s0.9-0.2,1.2-0.5c0.7-0.7,0.7-1.7,0-2.4L43.1,85.8L53,76L81,104.1c0.3,0.3,0.8,0.5,1.2,0.5s0.9-0.2,1.2-0.5
	c0.7-0.7,0.7-1.7,0-2.4L55.4,73.6l9.8-9.8L88.5,87c0.3,0.3,0.8,0.5,1.2,0.5s0.9-0.2,1.2-0.5c0.7-0.7,0.7-1.7,0-2.4L67.6,61.4
	l9.8-9.8L96,70.1c0.3,0.3,0.8,0.5,1.2,0.5s0.9-0.2,1.2-0.5c0.7-0.7,0.7-1.7,0-2.4L79.8,49.1l9.8-9.8l14,14c0.3,0.3,0.8,0.5,1.2,0.5
	s0.9-0.2,1.2-0.5c0.7-0.7,0.7-1.7,0-2.4l-14-14l9.8-9.8l9,9c0.3,0.3,0.8,0.5,1.2,0.5c0.4,0,0.9-0.2,1.2-0.5c0.7-0.7,0.7-1.7,0-2.4
	l-9-9l9.8-9.8l4.5,4.5c0.3,0.3,0.8,0.5,1.2,0.5s0.9-0.2,1.2-0.5C121.7,18.7,121.7,17.6,121,17z"/>
<g display="none">
	<g display="inline">
		<path fill="#F8F9FA" d="M104.8,28.1c0-0.2,0-0.4-0.1-0.6c0-0.1,0-0.1-0.1-0.2c-0.1-0.2-0.2-0.5-0.4-0.6L81.5,4
			c-0.2-0.2-0.4-0.3-0.6-0.4c-0.1,0-0.1-0.1-0.2-0.1c-0.2-0.1-0.4-0.1-0.6-0.1c0,0-0.1,0-0.1,0H22.4c-1.2,0-2.2,1-2.2,2.2v113.9
			c0,1.2,1,2.2,2.2,2.2h80.2c1.2,0,2.2-1,2.2-2.2V28.3C104.8,28.2,104.8,28.2,104.8,28.1z M97.2,26.1H82.2V10.9L97.2,26.1z
			 M24.6,117.2V7.8h53.1v20.5c0,1.2,1,2.2,2.2,2.2h20.4v86.7H24.6z"/>
	</g>
	<g display="inline">
		<path fill="#F8F9FA" d="M91.8,38.8H50.7c-1.2,0-2.2,1-2.2,2.2c0,1.2,1,2.2,2.2,2.2h41.1c1.2,0,2.2-1,2.2-2.2
			C94,39.8,93,38.8,91.8,38.8z"/>
	</g>
	<g display="inline">
		<path fill="#F8F9FA" d="M44.8,33c-1-0.7-2.4-0.4-3.1,0.6l-5.6,8.5l-2.3-2.9c-0.8-1-2.1-1.1-3.1-0.4c-1,0.8-1.1,2.2-0.4,3.1
			l4.2,5.4c0.4,0.5,1.1,0.8,1.7,0.8c0,0,0.1,0,0.1,0c0.7,0,1.4-0.4,1.8-1l7.3-11.1C46.2,35,45.9,33.7,44.8,33z"/>
	</g>
	<g display="inline">
		<path fill="#F8F9FA" d="M91.8,59.5H50.7c-1.2,0-2.2,1-2.2,2.2c0,1.2,1,2.2,2.2,2.2h41.1c1.2,0,2.2-1,2.2-2.2
			C94,60.5,93,59.5,91.8,59.5z"/>
	</g>
	<g display="inline">
		<path fill="#F8F9FA" d="M44.8,53.7c-1-0.7-2.4-0.4-3.1,0.6l-5.6,8.5l-2.3-2.9c-0.8-1-2.1-1.1-3.1-0.4c-1,0.8-1.1,2.2-0.4,3.1
			l4.2,5.4c0.4,0.5,1.1,0.8,1.7,0.8c0,0,0.1,0,0.1,0c0.7,0,1.4-0.4,1.8-1l7.3-11.1C46.2,55.7,45.9,54.4,44.8,53.7z"/>
	</g>
	<g display="inline">
		<path fill="#F8F9FA" d="M91.8,80.2H50.7c-1.2,0-2.2,1-2.2,2.2s1,2.2,2.2,2.2h41.1c1.2,0,2.2-1,2.2-2.2S93,80.2,91.8,80.2z"/>
	</g>
	<g display="inline">
		<path fill="#F8F9FA" d="M44.8,74.4c-1-0.7-2.4-0.4-3.1,0.6l-5.6,8.5l-2.3-2.9c-0.8-1-2.1-1.1-3.1-0.4c-1,0.8-1.1,2.2-0.4,3.1
			l4.2,5.4c0.4,0.5,1.1,0.8,1.7,0.8c0,0,0.1,0,0.1,0c0.7,0,1.4-0.4,1.8-1l7.3-11.1C46.2,76.5,45.9,75.1,44.8,74.4z"/>
	</g>
	<g display="inline">
		<path fill="#F8F9FA" d="M91.8,100.9H50.7c-1.2,0-2.2,1-2.2,2.2s1,2.2,2.2,2.2h41.1c1.2,0,2.2-1,2.2-2.2S93,100.9,91.8,100.9z"/>
	</g>
	<g display="inline">
		<path fill="#F8F9FA" d="M44.8,95.1c-1-0.7-2.4-0.4-3.1,0.6l-5.6,8.5l-2.3-2.9c-0.8-1-2.1-1.1-3.1-0.4c-1,0.8-1.1,2.2-0.4,3.1
			l4.2,5.4c0.4,0.5,1.1,0.8,1.7,0.8c0,0,0.1,0,0.1,0c0.7,0,1.4-0.4,1.8-1l7.3-11.1C46.2,97.2,45.9,95.8,44.8,95.1z"/>
	</g>
</g>
</svg>
